<?xml version="1.0" encoding="UTF-8" standalone="no"?>
<!-- Created with Inkscape (http://www.inkscape.org/) -->

<svg
   xmlns:dc="http://purl.org/dc/elements/1.1/"
   xmlns:cc="http://creativecommons.org/ns#"
   xmlns:rdf="http://www.w3.org/1999/02/22-rdf-syntax-ns#"
   xmlns:svg="http://www.w3.org/2000/svg"
   xmlns="http://www.w3.org/2000/svg"
   xmlns:sodipodi="http://sodipodi.sourceforge.net/DTD/sodipodi-0.dtd"
   xmlns:inkscape="http://www.inkscape.org/namespaces/inkscape"
   version="1.1"
   id="svg4572"
   xml:space="preserve"
   width="324"
   height="324"
   viewBox="0 0 324 324"
   sodipodi:docname="pinterest.svg"
   inkscape:version="0.92.5 (2060ec1f9f, 2020-04-08)"><metadata
     id="metadata4578"><rdf:RDF><cc:Work
         rdf:about=""><dc:format>image/svg+xml</dc:format><dc:type
           rdf:resource="http://purl.org/dc/dcmitype/StillImage" /><dc:title></dc:title></cc:Work></rdf:RDF></metadata><defs
     id="defs4576" /><sodipodi:namedview
     pagecolor="#ffffff"
     bordercolor="#666666"
     borderopacity="1"
     objecttolerance="10"
     gridtolerance="10"
     guidetolerance="10"
     inkscape:pageopacity="0"
     inkscape:pageshadow="2"
     inkscape:window-width="1842"
     inkscape:window-height="1016"
     id="namedview4574"
     showgrid="false"
     inkscape:zoom="1.3132716"
     inkscape:cx="115.47104"
     inkscape:cy="204.68129"
     inkscape:window-x="78"
     inkscape:window-y="27"
     inkscape:window-maximized="1"
     inkscape:current-layer="g4580" /><g
     id="g4580"
     inkscape:groupmode="layer"
     inkscape:label="ink_ext_XXXXXX"
     transform="matrix(1.3333333,0,0,-1.3333333,0,324)"><g
       id="g4582"
       transform="scale(0.1)"><path
         d="M 2429.99,1215 C 2429.99,544.031 1886.06,0.101563 1215.09,0.101563 544.121,0.101563 0.195313,544.031 0.195313,1215 c 0,670.97 543.925687,1214.9 1214.894687,1214.9 670.97,0 1214.9,-543.93 1214.9,-1214.9"
         style="fill:#ffffff;fill-opacity:1;fill-rule:nonzero;stroke:none"
         id="path4584"
         inkscape:connector-curvature="0" /><path
         d="M 1214.99,2430 C 543.973,2430 0,1886.03 0,1215.01 0,700.27 320.25,260.238 772.227,83.2109 761.598,179.34 752.008,327.18 776.441,432.129 c 22.071,94.82 142.469,603.931 142.469,603.931 0,0 -36.347,72.78 -36.347,180.39 0,168.94 97.921,295.07 219.847,295.07 103.65,0 153.73,-77.83 153.73,-171.15 0,-104.25 -66.37,-260.1 -100.63,-404.53 -28.62,-120.942 60.65,-219.559 179.92,-219.559 215.96,0 381.95,227.699 381.95,556.379 0,290.91 -209.04,494.31 -507.51,494.31 -345.706,0 -548.624,-259.3 -548.624,-527.28 0,-104.43 40.223,-216.4 90.418,-277.268 9.922,-12.031 11.383,-22.582 8.43,-34.852 -9.231,-38.379 -29.723,-120.898 -33.746,-137.789 -5.301,-22.242 -17.614,-26.961 -40.629,-16.25 -151.758,70.641 -246.629,292.489 -246.629,470.689 0,383.28 278.469,735.25 802.79,735.25 421.48,0 749.03,-300.34 749.03,-701.72 0,-418.738 -264.02,-755.73 -630.48,-755.73 -123.11,0 -238.86,63.96 -278.47,139.511 0,0 -60.93,-231.98 -75.7,-288.832 C 978.828,267.16 904.785,134.879 855.254,54.1914 968.941,18.9883 1089.75,0.0117188 1214.99,0.0117188 1886.03,0.0117188 2430,543.969 2430,1215.01 2430,1886.03 1886.03,2430 1214.99,2430"
         style="fill:#de1d25;fill-opacity:1;fill-rule:nonzero;stroke:none"
         id="path4586"
         inkscape:connector-curvature="0" /></g></g></svg>