<?xml version="1.0" encoding="utf-8"?>
<!-- Generator: Adobe Illustrator 28.0.0, SVG Export Plug-In . SVG Version: 6.00 Build 0)  -->
<svg version="1.1" id="Layer_1" xmlns="http://www.w3.org/2000/svg" xmlns:xlink="http://www.w3.org/1999/xlink" x="0px" y="0px"
	 viewBox="0 0 1866 500" style="enable-background:new 0 0 1866 500;" xml:space="preserve">
<style type="text/css">
	.st0{fill:#FFFFFF;}
	.st1{fill:#67E0A6;}
	.st2{fill-rule:evenodd;clip-rule:evenodd;fill:#FFFFFF;}
</style>
<path class="st0" d="M1348.3,297.8V171.3h65.2c16.6,0,32.3,6.7,44,18.6c11.7,11.8,18.1,27.9,18.1,44.6s-6.6,32.9-18.3,44.6
	c-11.7,11.8-26.4,18.5-42.9,18.5L1348.3,297.8z M1309.7,103.4c-10.3,0-20.2,4.2-27.5,11.6c-7.3,7.4-11.3,17.5-11.5,27.9v293.9
	c0,12.1,9.8,21.9,21.9,21.9c30.7,0,55.6-24.9,55.6-55.6v-37.4h69.8c80.6,0,134.5-58.6,134.5-131.1s-52.1-131.1-132.7-131.1H1309.7z"
	/>
<path class="st0" d="M1044.4,179.4h-60.6c-29.4,0-53.2-23.8-53.2-53.2v-0.1c0-12.6,10.2-22.8,22.8-22.8h259.8
	c12.6,0,22.8,10.2,22.8,22.8v0.1c0,29.4-23.8,53.2-53.2,53.2h-60.7v238.7c0,20.2-14.8,38.3-34.9,40.2c-23.1,2.2-42.5-15.9-42.5-38.6
	L1044.4,179.4z"/>
<path class="st0" d="M1673.9,179.4h-60.7c-29.4,0-53.2-23.8-53.2-53.2v-0.1c0-12.6,10.2-22.8,22.8-22.8h259.8
	c12.6,0,22.8,10.2,22.8,22.8v0.1c0,29.4-23.8,53.2-53.2,53.2h-60.7v238.7c0,20.2-14.8,38.3-34.9,40.2c-23.1,2.2-42.5-15.9-42.5-38.6
	L1673.9,179.4z"/>
<path class="st1" d="M747.3,127.9c7.6-38.2-12.8-74.5-45.6-81c-32.8-6.5-65.5,19.2-73.1,57.4c-7.6,38.2,12.8,74.5,45.6,81
	C706.9,191.9,739.7,166.1,747.3,127.9z"/>
<path class="st0" d="M207,154.3c33.7-6.7,54.6-44,46.8-83.2c-7.8-39.3-41.4-65.7-75.1-59c-33.7,6.7-54.6,44-46.8,83.2
	C139.7,134.6,173.4,161,207,154.3z"/>
<path class="st1" d="M882.8,263.7l1.1-2.6v0c5.1-12.5-0.9-27.2-13.5-32.3c-45.7-18.4-92.7-33.1-140.6-44.2
	c-20.6,17.5-47.7,23.2-72.1,12.5c-14.7-6.5-26.2-17.7-33.9-31.9c-37.2-5.1-74.7-8.3-112.2-9.8c0.6,3.6,0.8,7.3,0.5,11.2
	c-1.8,25.1-15.8,46.2-35.7,58.1c0.1,0,0.2,0,0.3,0c8.5-2.8,17.5-4.2,26.9-4.2c48.1,0,87,39,87,87c0,2.2-0.1,4.3-0.2,6.5
	c-4.1,71-78.7,163.8-150.5,145.8v31.8c0,0,164.9,65.9,266-168.9c13.2-30.7,42.9-50.5,75.3-41.9c13.5,3.5,26.9,7.4,40.3,11.7
	C846.3,300.1,873.2,287.9,882.8,263.7z"/>
<path class="st2" d="M499.7,165.6c-2.4,32.3-30.3,57.5-62.5,57.5c-3.9,0-9-0.8-15.1-1.7c-9.5-1.5-21.3-3.3-34.1-3
	c-38.4,0.1-71.4,23.4-85.6,56.7c-4,8.8-6.4,18.5-7.1,28.7c-0.4,4.3-0.4,8.6-0.2,12.9c3.1,72,72.8,160.8,144.8,142.9v31.8
	c0,0-160.2,62.4-259.2-194.2c-12.3-31.8-42.8-52.4-75.8-43.7c-13.4,3.5-26.7,7.3-39.8,11.6c-24.8,8-51.5-4.3-61.3-28.4l-1.1-2.6
	C-2.7,221.6,3,207.1,15.5,202c46.3-18.6,94.1-33.4,142.6-44.7c19.5,13,43.2,16.4,64.8,6.9c12-5.2,22-13.8,29.4-24.6
	c70.5-10,142-13.5,213-11.8C485.4,128.4,501.2,145.5,499.7,165.6z M483.5,154.8l-36.7-1.4c6.9,13.8,4.1,40.8-5.2,57
	c8.8,0,17.2-2.9,24.2-7.7c6.9-5,12.2-12,14.9-20.5C483.4,173.3,484.6,163.8,483.5,154.8z"/>
</svg>
