<svg width="1866" height="500" viewBox="0 0 1866 500" fill="none" xmlns="http://www.w3.org/2000/svg">
<path d="M1348.27 297.756V171.319H1413.42C1429.98 171.319 1445.69 178.039 1457.38 189.937C1469.06 201.751 1475.52 217.802 1475.52 234.58C1475.52 251.358 1468.93 267.452 1457.25 279.222C1445.56 291.036 1430.82 297.713 1414.38 297.713L1348.27 297.756ZM1309.67 103.392C1299.39 103.392 1289.42 107.544 1282.14 114.948C1274.87 122.353 1270.8 132.412 1270.67 142.812V436.734C1270.67 448.804 1280.48 458.606 1292.55 458.606C1323.28 458.606 1348.19 433.695 1348.19 402.963V365.597H1417.96C1498.59 365.597 1552.48 306.958 1552.48 234.537C1552.48 162.116 1500.41 103.392 1419.77 103.392H1309.67Z" fill="#173E3E"/>
<path d="M1044.42 179.367H983.773C954.411 179.367 930.613 155.569 930.613 126.207V126.078C930.613 113.494 940.8 103.308 953.383 103.308H1213.19C1225.78 103.308 1235.96 113.494 1235.96 126.078V126.207C1235.96 155.569 1212.16 179.367 1182.8 179.367H1122.15V418.116C1122.15 438.362 1107.34 456.424 1087.23 458.35C1064.11 460.576 1044.68 442.428 1044.68 419.786L1044.42 179.367Z" fill="#173E3E"/>
<path d="M1673.91 179.368H1613.26C1583.9 179.368 1560.1 155.57 1560.1 126.208V126.079C1560.1 113.495 1570.29 103.309 1582.87 103.309H1842.68C1855.26 103.309 1865.45 113.495 1865.45 126.079V126.208C1865.45 155.57 1841.65 179.368 1812.29 179.368H1751.64V418.117C1751.64 438.363 1736.83 456.425 1716.71 458.351C1693.6 460.577 1674.17 442.429 1674.17 419.787L1673.91 179.368Z" fill="#173E3E"/>
<path d="M747.274 127.915C754.872 89.6821 734.455 53.4066 701.671 46.8913C668.886 40.3761 636.15 66.0883 628.552 104.321C620.954 142.554 641.371 178.83 674.156 185.345C706.94 191.86 739.676 166.148 747.274 127.915Z" fill="#67E0A6"/>
<path d="M207.029 154.346C240.694 147.655 261.658 110.392 253.852 71.116C246.047 31.8398 212.428 5.42376 178.763 12.1141C145.098 18.8044 124.134 56.0677 131.94 95.3439C139.745 134.62 173.364 161.036 207.029 154.346Z" fill="#173E3E"/>
<path d="M882.846 263.731L883.958 261.121V261.077C889.052 248.537 883.103 233.897 870.433 228.804C824.764 210.442 777.725 195.676 729.828 184.633C709.199 202.138 682.148 207.831 657.708 197.175C643.026 190.711 631.512 179.454 623.808 165.286C586.57 160.193 549.119 156.983 511.624 155.485C512.267 159.079 512.394 162.804 512.138 166.655C510.297 191.739 496.386 212.839 476.398 224.739C476.506 224.724 476.62 224.71 476.74 224.691C485.214 221.938 494.259 220.45 503.651 220.45C551.717 220.45 590.684 259.417 590.684 307.484C590.684 309.662 590.604 311.821 590.447 313.959C586.324 384.95 511.746 477.737 439.921 459.722V491.48C439.921 491.48 604.847 557.395 705.903 322.54C719.128 291.809 748.833 272.034 781.234 280.595C794.76 284.104 808.156 288.043 821.554 292.28C846.335 300.113 873.172 287.914 882.846 263.731Z" fill="#67E0A6"/>
<path fill-rule="evenodd" clip-rule="evenodd" d="M499.681 165.628C497.32 197.931 469.403 223.111 437.19 223.111C433.316 223.111 428.189 222.325 422.126 221.396C412.638 219.941 400.859 218.134 388.012 218.442C349.598 218.537 316.642 241.857 302.442 275.102C298.397 283.893 296.089 293.603 295.313 303.839C294.957 308.094 294.891 312.474 295.121 316.764C298.207 388.775 367.896 477.599 439.92 459.712V491.483C439.92 491.483 279.722 553.842 180.678 297.287C168.394 265.485 137.833 244.898 104.833 253.586C91.4359 257.053 78.1245 260.906 64.9843 265.143C40.2019 273.104 13.4935 260.82 3.69183 236.722L2.57898 234.112C-2.72847 221.571 2.96419 207.061 15.5052 201.967C61.8169 183.348 109.584 168.582 158.121 157.282C177.639 170.294 201.309 173.632 222.924 164.216C234.951 158.994 244.881 150.434 252.329 139.648C322.823 129.632 394.303 126.122 465.311 127.877C485.428 128.391 501.179 145.511 499.681 165.628ZM483.502 154.842L446.778 153.473C453.712 167.255 450.844 194.306 441.556 210.442C450.331 210.442 458.805 207.574 465.739 202.738C472.673 197.773 477.895 190.71 480.634 182.278C483.374 173.333 484.615 163.788 483.502 154.842Z" fill="#173E3E"/>
</svg>
