<svg enable-background="new 0 0 800 600" height="600" viewBox="0 0 800 600" width="800" xmlns="http://www.w3.org/2000/svg"><g fill="none" stroke="#fff" stroke-miterlimit="10"><path d="m243.81 510.76c6.46 7.66 92.49 51.24 157.94 51.24 144.7 0 262-117.3 262-262s-117.3-262-262-262-262 117.3-262 262c0 73.53 33.95 145.54 82.73 193.12" stroke-width="13"/><path d="m308.6 354.14c-26.09-7.27-52.59 5.38-64.8 30.59-.74 1.53-13.78 35.26-13.78 35.26s45.07-28.35 57.13-29.37c-11.46 69.32-109.78 145.67-109.78 145.67s13.92-4.92 32.67-12.44c31.93-13.35 95.73-31.1 140.83-81.7 4.87 12.42 18.03 41.96-5.57 76.15 78.34-46.17 57.23-90.64 44.08-111.64-2.66-4.25-80.34-50.38-80.78-52.52z" stroke-width="7"/><path d="m381.12 217.69c5.55-8.08 11.12-16.16 17.3-23.77 30.13-37.03 75.3-61.46 122.78-66.4 1.37-.14 2.77-.27 4.11.02 5.79 1.25 7.29 8.69 7.46 14.61 1.09 38.62-3.5 78.46-21.81 112.48-6.93 12.88-15.68 24.67-24.41 36.41-21.45 28.87-42.9 57.74-64.35 86.61-1.06 1.43-4.59 10.12-5.74 8.76-4.91-5.79-99.26-59.05-96.55-63.38 4.36-6.91 39.91-74.36 61.21-105.34z" stroke-width="7"/><path d="m465.41 416.11-10.85-15.36c-10.5-12.88-12.38-14.29-24.32-24.95-1.88-1.68 43.95-63.4 52.88-79.27.28-.5 1.38-1.24 1.96-1.23.71.01 1.72.97 2.12 1.88 3.36 7.69 32.01 51.39-10.93 118.69-2.51 3.9-8.18 4.03-10.86.24z" stroke-width="7"/><path d="m270.1 288.74 18.64 5.93c16.2 6.47 18.25 7.96 32.96 16.77 2.32 1.39 41.5-69.9 52.72-85.19.36-.49.6-1.92.37-2.53-.29-.75-1.59-1.48-2.6-1.57-8.51-.77-60.65-15.3-106.19 54.95-2.65 4.09-.5 10.18 4.1 11.64z" stroke-width="7"/><path d="m406 376.81c-5.15 5.15-1.41 37.23-18.15 26.12-12.21-8.11-42.86-27.75-60.72-38.56-2.91-1.76-21.7-11.08-18.06-17.82 3.41-6.3 24.37-9.78 25.69-11.54" stroke-width="7"/><ellipse cx="430.18" cy="259.32" rx="40.45" ry="40.68" stroke-width="4"/><g stroke-width="7"><ellipse cx="418.9" cy="232.98" rx=".79" ry=".73"/><ellipse cx="432.74" cy="230.78" rx=".79" ry=".73"/><ellipse cx="446.29" cy="236" rx=".79" ry=".73"/><ellipse cx="458.13" cy="260.82" rx=".79" ry=".73"/><ellipse cx="455.28" cy="247.34" rx=".79" ry=".73"/><ellipse cx="453.49" cy="273.78" rx=".79" ry=".73"/><ellipse cx="401.75" cy="266.66" rx=".79" ry=".73"/><ellipse cx="430.97" cy="287.34" rx=".79" ry=".73"/><ellipse cx="444.71" cy="284.14" rx=".79" ry=".73"/><ellipse cx="407.79" cy="241.32" rx=".79" ry=".73"/><ellipse cx="401.75" cy="252.82" rx=".79" ry=".73"/></g><path d="m456.12 149.03c-2.3 42.91 40.66 60.93 73.28 49.57" stroke-width="4"/></g></svg>
